<?xml version="1.0" encoding="UTF-8"?>
<svg id="Layer_1" data-name="Layer 1" xmlns="http://www.w3.org/2000/svg" xmlns:xlink="http://www.w3.org/1999/xlink" viewBox="0 0 120 60">
  <defs>
    <style>
      .cls-1 {
        fill: #334155;
      }

      .cls-2 {
        fill: url(#linear-gradient);
      }

      .cls-3 {
        fill: #1e293b;
      }

      .cls-4 {
        fill: #fff;
        isolation: isolate;
      }
    </style>
    <linearGradient id="linear-gradient" x1="12.53" y1="22.01" x2="28.5" y2="37.99" gradientUnits="userSpaceOnUse">
      <stop offset="0" stop-color="#34d399"/>
      <stop offset="1" stop-color="#10b981"/>
    </linearGradient>
  </defs>
  <g>
    <circle class="cls-1" cx="20.52" cy="30" r="14.96"/>
    <circle class="cls-3" cx="20.52" cy="30" r="11.3"/>
    <path class="cls-2" d="M20.52,18.7c-6.24,0-11.3,5.06-11.3,11.3s5.06,11.3,11.3,11.3,11.3-5.06,11.3-11.3-5.06-11.3-11.3-11.3ZM20.52,38.97c-4.96,0-8.97-4.02-8.97-8.97s4.02-8.97,8.97-8.97,8.97,4.02,8.97,8.97-4.02,8.97-8.97,8.97Z"/>
    <circle class="cls-4" cx="26.84" cy="37.52" r="2.66"/>
  </g>
  <g fill="currentColor">
    <path d="M39.69,43.58v-19.98h4.04l.16,3.17-.8-.24c.12-.59.43-1.12.9-1.6s1.09-.86,1.82-1.16,1.51-.44,2.33-.44c1.21,0,2.28.32,3.22.94.94.63,1.68,1.49,2.22,2.58.54,1.09.81,2.35.81,3.79s-.27,2.68-.81,3.78c-.54,1.1-1.29,1.96-2.23,2.59-.95.63-2.04.94-3.26.94-.8,0-1.56-.15-2.29-.45-.73-.3-1.34-.71-1.84-1.22s-.82-1.07-.98-1.68l.98-.37v9.34h-4.28ZM47.06,34.38c.64,0,1.2-.16,1.68-.47s.85-.74,1.12-1.29.4-1.21.4-1.97-.13-1.4-.4-1.96c-.27-.56-.63-.99-1.1-1.3s-1.03-.47-1.69-.47-1.22.15-1.7.45c-.48.3-.85.74-1.12,1.3s-.4,1.22-.4,1.97.13,1.42.4,1.97.64.98,1.12,1.29,1.05.47,1.7.47Z"/>
    <path d="M59.59,20.81c-.8,0-1.42-.19-1.88-.57-.45-.38-.68-.93-.68-1.64,0-.64.23-1.16.69-1.57.46-.41,1.08-.61,1.86-.61s1.42.19,1.86.57c.44.38.67.92.67,1.61,0,.66-.23,1.19-.68,1.6-.45.41-1.07.61-1.85.61ZM57.46,37.73v-14.13h4.26v14.13h-4.26Z"/>
    <path d="M71.9,37.99c-1.37,0-2.59-.32-3.67-.96-1.08-.64-1.94-1.51-2.57-2.62-.63-1.11-.94-2.36-.94-3.76s.31-2.66.94-3.76,1.49-1.98,2.57-2.62c1.08-.64,2.3-.96,3.67-.96,1.26,0,2.42.22,3.47.66,1.06.44,1.89,1.06,2.51,1.86l-2.31,2.77c-.25-.28-.54-.55-.88-.8-.34-.25-.71-.44-1.12-.59-.41-.14-.83-.21-1.28-.21-.67,0-1.27.16-1.78.47s-.91.74-1.2,1.29-.42,1.18-.42,1.89c0,.67.15,1.29.44,1.84.29.55.7.98,1.21,1.3s1.1.48,1.76.48c.46,0,.89-.06,1.28-.17.39-.12.75-.29,1.08-.52.33-.23.63-.51.92-.85l2.29,2.79c-.6.76-1.44,1.37-2.52,1.81-1.07.44-2.22.67-3.45.67Z"/>
    <path d="M79.65,37.73v-2.45l7.5-9.63v1.41h-7.5v-3.46h11.71v2.55l-7.1,9.34-.11-1.22h7.45v3.46h-11.94Z"/>
    <path d="M101.3,37.99c-1.56,0-2.92-.32-4.07-.95-1.15-.63-2.05-1.49-2.69-2.58-.64-1.09-.96-2.34-.96-3.74,0-1.08.18-2.07.53-2.98s.85-1.69,1.49-2.35c.64-.67,1.4-1.18,2.27-1.54.88-.36,1.84-.54,2.89-.54s1.9.18,2.73.53,1.54.85,2.14,1.49c.6.64,1.06,1.39,1.38,2.26.32.87.46,1.82.43,2.85l-.03,1.14h-11.25l-.61-2.39h8.41l-.45.51v-.53c-.04-.44-.17-.84-.41-1.18-.24-.35-.55-.62-.94-.81-.39-.19-.83-.29-1.33-.29-.69,0-1.28.14-1.77.41s-.86.67-1.1,1.2c-.25.52-.37,1.17-.37,1.93s.16,1.46.49,2.03c.33.58.81,1.02,1.44,1.34.63.32,1.38.48,2.25.48.6,0,1.14-.09,1.61-.27.47-.18.98-.48,1.53-.9l2,2.82c-.55.48-1.13.87-1.76,1.17-.62.3-1.25.53-1.9.68-.65.15-1.29.23-1.93.23Z"/>
    <path d="M110.19,37.73v-19.69h4.26v19.69h-4.26Z"/>
  </g>
</svg>